<?xml version="1.0" encoding="UTF-8" standalone="no"?>
<svg
   viewBox="0 0 210 25.043478"
   width="210"
   height="36"
   version="1.1"
   id="svg4"
   sodipodi:docname="Marni logo.svg"
   inkscape:version="1.1.1 (3bf5ae0d25, 2021-09-20)"
   xmlns:inkscape="http://www.inkscape.org/namespaces/inkscape"
   xmlns:sodipodi="http://sodipodi.sourceforge.net/DTD/sodipodi-0.dtd"
   xmlns="http://www.w3.org/2000/svg"
   xmlns:svg="http://www.w3.org/2000/svg">
  <defs
     id="defs8" />
  <sodipodi:namedview
     id="namedview6"
     pagecolor="#ffffff"
     bordercolor="#999999"
     borderopacity="1"
     inkscape:pageshadow="0"
     inkscape:pageopacity="0"
     inkscape:pagecheckerboard="0"
     showgrid="false"
     fit-margin-top="10"
     fit-margin-right="10"
     fit-margin-bottom="10"
     fit-margin-left="10"
     inkscape:zoom="3.4105263"
     inkscape:cx="105.99537"
     inkscape:cy="15.393519"
     inkscape:window-width="1920"
     inkscape:window-height="1001"
     inkscape:window-x="-9"
     inkscape:window-y="-9"
     inkscape:window-maximized="1"
     inkscape:current-layer="svg4" />
  <path
     d="m 108.375,4.528739 c 3.578,0 6.597,1.523 6.57,5.557 0,2.206 -0.781,3.242 -2.582,3.965 l -0.119,0.047 c -0.1,0.038 -0.204,0.076 -0.31,0.113 l -0.064,0.022 v 0.139 c 0.365,0.24 0.683,0.546 0.938,0.903 l 0.04,0.056 3.438,5.191 h -6.625 l -2.516,-5.128 h -0.112 v 5.128 h -5.62 l -0.004,-15.993 h 6.967 z m -40.479,-0.002 5.646,15.994 h -6.097 l -0.532,-2.002 h -4.33 l -0.474,2.002 h -6.097 l 5.507,-15.994 z m 82.708,0 5.172,8.857 h 0.167 a 22.378,22.378 0 0 1 -0.469,-4.062 v -4.795 h 5.479 v 15.994 h -5.506 l -5.06,-8.406 h -0.168 c 0.206,1.052 0.327,2.119 0.364,3.19 v 5.19 h -5.507 v -15.967 h 5.528 z m 49.396,0 v 15.994 h -5.759 v -15.994 z m -171.125,-0.005 2.597,15.994 h -5.566 l -0.783,-8.744 H 25.01 a 10.093,10.093 0 0 1 -0.392,1.579 l -2.292,7.165 h -3.354 l -2.067,-6.77 a 11.94,11.94 0 0 1 -0.364,-2.003 h -0.196 c -0.02,0.244 -0.038,0.487 -0.054,0.729 l -0.031,0.481 c -0.016,0.24 -0.033,0.476 -0.054,0.71 l -0.699,6.825 H 10 l 2.571,-15.961 h 5.927 l 2.18,8.377 h 0.14 c 0.091,-0.712 0.224,-1.418 0.397,-2.115 l 1.789,-6.267 z m 36.028,5.308 h -0.226 l -1.063,4.88 h 2.351 l -0.535,-2.396 -0.213,-0.973 -0.123,-0.567 -0.093,-0.442 -0.058,-0.285 -0.027,-0.144 z m 42.613,-0.931 h -0.483 v 2.713 h 0.477 l 0.122,-0.002 0.091,-0.002 0.091,-0.004 0.06,-0.003 0.09,-0.007 0.059,-0.005 0.058,-0.006 0.058,-0.007 0.057,-0.008 0.057,-0.01 0.028,-0.004 0.055,-0.011 0.027,-0.006 0.054,-0.013 0.027,-0.007 0.052,-0.014 c 0.485,-0.145 0.833,-0.475 0.833,-1.222 0,-0.804 -0.364,-1.147 -0.887,-1.288 l -0.054,-0.014 -0.027,-0.006 -0.055,-0.012 -0.028,-0.005 -0.057,-0.01 -0.029,-0.005 -0.058,-0.008 -0.03,-0.003 -0.058,-0.007 -0.06,-0.006 -0.061,-0.005 -0.061,-0.004 -0.094,-0.004 -0.062,-0.002 -0.096,-0.002 z"
     fill-rule="evenodd"
     id="path2" />
</svg>
