<svg xmlns="http://www.w3.org/2000/svg" width="168" height="33" viewBox="0 0 168 33">
    <path fill="#1A1919" fill-rule="evenodd" d="M50 .584c-1.444.02-1.695.195-2.542 2.259L42.914 14h-.5L36.886 1.986C36.347.798 35.905.623 35 .584V.59c-1.336.02-1.705.492-1.705 1.592v9.635c0 1.1.37 1.573 1.705 1.592V14c-1.644-.04-2.342-.06-3-.06-.657 0-1.356.02-3 .06v-.59c1.336-.02 1.706-.492 1.706-1.593V2.182c0-1.1-.37-1.573-1.706-1.592V0c1.644.04 2.343.059 3 .059.658 0 1.356-.02 3-.059 1.329.039 2.214.058 3.08.058.886 0 1.753-.02 3.101-.058v.584h-.77c-.694 0-1.002.273-1.002.74 0 .194.058.35.732 1.87l3.447 7.769 2.907-8.315c.173-.526.328-.973.328-1.324 0-.603-.52-.74-1.348-.74V0c1.116.039 1.733.058 2.272.058.54 0 1.155-.02 2.253-.058.676.02 1.65.059 2.665.059 3.044 0 5.49-.04 7.34-.059l.08 3.303h-.637C59.13 1.416 58.275.747 55.888.747h-1.73V6.43h1.53c1.811 0 2.07-.65 2.21-1.888h.675c-.02.767-.04 1.494-.04 2.123 0 .924.02 1.672.04 2.458h-.676c0-1.553-.497-1.946-2.228-1.946h-1.512v4.68c0 .904.378 1.395 2.247 1.395 2.03 0 3.442-.373 3.92-2.85H61c-.12.943-.299 2.595-.299 3.598-1.929-.02-4.455-.06-7.578-.06-1.532 0-2.725.04-3.123.06v-.59c1.293-.02 1.65-.492 1.65-1.593V2.182c0-1.1-.357-1.573-1.65-1.592V.584zm-7.6 31.058H44V32h-2v-6h.4v5.642zM54 29c0 1.643-1.374 3-3 3s-3-1.357-3-3 1.366-3 3-3c1.626 0 3 1.357 3 3zm-5.632 0c0 1.442 1.19 2.65 2.632 2.65 1.435 0 2.631-1.216 2.631-2.65 0-1.442-1.196-2.65-2.631-2.65-1.443 0-2.632 1.208-2.632 2.65zm14.012-1.96c-.297-.42-.716-.69-1.336-.69-.708 0-1.24.503-1.24 1.115s.654.868 1.187 1.093l1.257.581c.499.28.752.636.752 1.163 0 .97-.995 1.698-2.061 1.698-.917 0-1.633-.504-1.939-1.256l.367-.147c.28.62.795 1.054 1.59 1.054.864 0 1.624-.605 1.624-1.38 0-.659-.76-.938-1.328-1.186l-1.187-.558c-.437-.24-.681-.582-.681-1.046 0-.868.698-1.481 1.685-1.481.663 0 1.292.318 1.607.822l-.297.217zm9.967 2.973l-.788 1.805h-.381l2.464-5.67 2.456 5.67h-.383l-.787-1.805h-2.581zm1.295-2.977l-1.155 2.65h2.3l-1.145-2.65zM85.887 32l-4.936-4.898v4.716h-.374v-5.56l4.936 4.861v-4.788h.374V32zm11.112-2.891c.016.735-.096 1.38-.63 1.945-.575.605-1.436.946-2.282.946C92.42 32 91 30.636 91 29.023 91 27.35 92.412 26 94.135 26c1.093 0 1.979.528 2.608 1.364l-.31.24c-.535-.775-1.349-1.255-2.321-1.255-1.469 0-2.729 1.248-2.729 2.651 0 1.442 1.229 2.65 2.729 2.65.645 0 1.276-.255 1.77-.642.519-.426.71-.915.734-1.55h-2.154v-.35H97zm4.401-2.751v2.18h2.534v.359H101.4v2.745h2.6V32h-3v-6h3v.358h-2.6zm8 5.284h1.6V32h-2v-6h.4v5.642zm6-5.284v2.18h2.534v.359H115.4v2.745h2.6V32h-3v-6h3v.358h-2.6zm9.98.681c-.297-.42-.716-.69-1.336-.69-.708 0-1.24.504-1.24 1.116 0 .612.655.868 1.187 1.093l1.258.581c.497.28.751.636.751 1.163 0 .97-.995 1.698-2.061 1.698-.917 0-1.633-.504-1.939-1.256l.367-.147c.28.62.795 1.054 1.59 1.054.864 0 1.624-.605 1.624-1.38 0-.659-.76-.938-1.328-1.186l-1.187-.558c-.437-.24-.681-.582-.681-1.046 0-.868.698-1.481 1.684-1.481.664 0 1.294.318 1.608.822l-.297.217zM7.87 0C12.185 0 16 2.864 16 7c0 3.68-2.977 7-7.87 7C3.815 14 0 11.135 0 7c0-3.68 2.977-7 7.87-7zm.779 13.28c1.278 0 4.394-.74 4.394-5.446 0-3.68-2.197-7.113-5.692-7.113-1.278 0-4.394.74-4.394 5.445 0 3.68 2.196 7.113 5.692 7.113zm8.351.13c1.248-.02 1.593-.492 1.593-1.593V2.182c0-1.1-.345-1.573-1.593-1.592V0c1.536.04 2.188.059 2.803.059.614 0 1.267-.02 2.803-.059v.59c-1.248.02-1.594.492-1.594 1.592v9.635c0 1.022.557 1.356 2.15 1.356 2.534 0 3.801-.334 4.185-2.771H28L27.693 14c-1.94-.02-5.606-.06-9.273-.06-.575 0-1.074.02-1.42.06v-.59zm45-.24c1.279-.02 1.632-.483 1.632-1.565V2.143C63.632 1.063 63.28.6 62 .58V0c.925.02 1.711.058 2.439.058C65.717.058 67.015 0 68.294 0c3.422 0 4.504 1.68 4.504 3.572 0 1.314-.827 2.781-2.735 3.36l2.459 4.442c.885 1.602 1.357 1.97 2.478 2.124v.464c-.295.018-.59.038-.905.038-2.615 0-3.697-.889-4.799-3.186L68.53 9.21c-.826-1.718-1.102-1.854-2.42-1.873v4.267c0 1.082.355 1.545 1.633 1.564v.58c-1.573-.039-2.242-.058-2.872-.058-.629 0-1.298.02-2.871.058v-.58zm4.11-6.547c.374.078.905.135 1.299.135 1.77 0 2.832-.791 2.832-2.665 0-1.409-.728-3.514-3.285-3.514-.354 0-.57.02-.846.077v5.967zM81 13.41c1.302-.019 1.663-.491 1.663-1.592V2.182c0-1.1-.36-1.573-1.663-1.592V0c.681.04 1.663.059 2.504.059C84.567.059 85.628 0 86.691 0 90.617 0 92 1.71 92 3.972c0 2.28-1.523 3.657-5.21 3.657-.58 0-1.282-.02-1.603-.06v4.248c0 1.1.361 1.573 1.664 1.592V14c-1.603-.04-2.284-.06-2.926-.06-.641 0-1.322.02-2.925.06v-.59zm4.187-6.665c.381.079.922.138 1.323.138 1.803 0 2.886-.806 2.886-2.714 0-1.455-.742-3.578-3.347-3.578-.36 0-.58.02-.862.078v6.076zM93 13.41c1.293-.019 1.651-.491 1.651-1.592V2.182c0-1.1-.358-1.573-1.651-1.592V0c.676.02 1.651.059 2.666.059 3.043 0 5.49-.04 7.34-.059l.08 3.303h-.637c-.318-1.887-1.174-2.556-3.561-2.556h-1.73V6.43h1.531c1.811 0 2.07-.65 2.208-1.888h.676c-.02.767-.039 1.494-.039 2.123 0 .924.02 1.672.04 2.458h-.677c0-1.553-.497-1.946-2.228-1.946h-1.511v4.68c0 .904.377 1.395 2.247 1.395 2.03 0 3.442-.373 3.92-2.85H104c-.12.943-.298 2.595-.298 3.598-1.93-.02-4.455-.06-7.578-.06-1.533 0-2.726.04-3.124.06v-.59zM113.87 0c4.315 0 8.13 2.864 8.13 7 0 3.68-2.976 7-7.87 7-4.315 0-8.13-2.865-8.13-7 0-3.68 2.976-7 7.87-7zm.78 13.28c1.278 0 4.394-.74 4.394-5.446 0-3.68-2.197-7.113-5.693-7.113-1.279 0-4.395.74-4.395 5.445 0 3.68 2.198 7.113 5.693 7.113zm8.35.13c1.302-.02 1.663-.492 1.663-1.593V2.182c0-1.1-.361-1.573-1.663-1.592V0c.68.04 1.663.059 2.505.059 1.062 0 2.123-.059 3.185-.059 3.928 0 5.31 1.71 5.31 3.972 0 2.28-1.522 3.657-5.21 3.657-.58 0-1.282-.02-1.603-.06v4.248c0 1.1.36 1.573 1.663 1.592V14c-1.603-.04-2.283-.06-2.925-.06-.642 0-1.322.02-2.925.06v-.59zm4.187-6.666c.381.079.923.138 1.324.138 1.803 0 2.885-.806 2.885-2.714 0-1.455-.742-3.578-3.347-3.578-.36 0-.58.02-.862.078v6.076zM134 13.41c1.248-.019 1.594-.491 1.594-1.592V2.182c0-1.1-.346-1.573-1.594-1.592V0c1.536.04 2.189.059 2.803.059.615 0 1.267-.02 2.803-.059v.59c-1.248.02-1.593.492-1.593 1.592v9.635c0 1.022.556 1.356 2.15 1.356 2.533 0 3.8-.334 4.184-2.771H145L144.692 14c-1.938-.02-5.605-.06-9.27-.06-.577 0-1.076.02-1.422.06v-.59zm12 0c1.293-.019 1.65-.491 1.65-1.592V2.182c0-1.1-.357-1.573-1.65-1.592V0c.676.02 1.65.059 2.665.059 3.043 0 5.49-.04 7.34-.059l.08 3.303h-.637c-.319-1.887-1.173-2.556-3.56-2.556h-1.731V6.43h1.531c1.811 0 2.07-.65 2.209-1.888h.675c-.019.767-.04 1.494-.04 2.123 0 .924.021 1.672.04 2.458h-.675c0-1.553-.498-1.946-2.228-1.946h-1.512v4.68c0 .904.377 1.395 2.247 1.395 2.03 0 3.442-.373 3.919-2.85H157c-.12.943-.298 2.595-.298 3.598-1.93-.02-4.457-.06-7.58-.06-1.531 0-2.724.04-3.122.06v-.59zm13-3.317h.737c.454 2.2 2.307 3.187 3.612 3.187 1.853 0 2.76-1.195 2.76-2.238 0-3.036-6.901-2.884-6.901-7.095 0-.968.548-3.946 4.765-3.946 1.021 0 2.44.114 3.498.493l.114 3.358h-.7c-.208-1.935-1.456-3.13-3.461-3.13-1.531 0-2.438.986-2.438 2.01 0 2.77 7.014 3.017 7.014 7.247 0 2.239-1.588 4.022-4.727 4.022-1.21 0-2.78-.246-4.122-.626L159 10.092z"/>
</svg>
